<!DOCTYPE svg PUBLIC "-//W3C//DTD SVG 20010904//EN" "http://www.w3.org/TR/2001/REC-SVG-20010904/DTD/svg10.dtd">
<svg version="1.0" xmlns="http://www.w3.org/2000/svg" width="1600px" height="1090px" viewBox="0 0 16000 10900" preserveAspectRatio="xMidYMid meet">
<g id="layer101" fill="#000000" stroke="none">
 <path d="M8720 9484 c-199 -5 -551 -24 -725 -39 -88 -7 -241 -19 -340 -25 -99 -6 -254 -15 -345 -21 -91 -5 -318 -13 -505 -16 -371 -6 -592 2 -1310 47 -242 16 -269 4 -210 -90 14 -22 25 -42 25 -45 0 -2 26 -42 59 -87 53 -75 77 -113 127 -202 9 -16 38 -60 65 -96 27 -37 62 -94 79 -126 36 -70 39 -74 155 -246 96 -142 110 -165 151 -243 15 -27 42 -71 60 -98 19 -26 34 -50 34 -53 0 -3 13 -24 28 -47 43 -62 67 -102 207 -332 70 -115 142 -232 160 -260 18 -27 41 -66 52 -85 24 -43 80 -139 93 -160 94 -150 178 -288 184 -300 4 -8 12 -24 19 -35 7 -11 30 -51 52 -88 22 -38 47 -81 56 -95 41 -67 269 -454 269 -457 0 -4 146 -263 160 -285 6 -8 13 -22 17 -30 4 -8 47 -82 96 -165 129 -215 135 -235 77 -235 -26 0 -278 -48 -290 -55 -6 -4 -149 -27 -270 -45 -262 -38 -748 -58 -1470 -60 -458 -2 -546 -7 -566 -35 -16 -21 -18 -82 -5 -118 23 -60 131 -142 351 -264 248 -139 394 -208 505 -239 33 -9 89 -31 125 -49 36 -18 96 -40 134 -49 37 -10 102 -31 143 -47 86 -35 263 -82 373 -99 41 -6 122 -21 180 -32 108 -21 224 -22 534 -1 l99 6 -23 -42 c-13 -23 -31 -49 -39 -59 -9 -9 -29 -35 -46 -57 -16 -22 -68 -85 -116 -140 -47 -55 -117 -143 -157 -196 -39 -53 -88 -117 -109 -142 -35 -42 -69 -87 -169 -222 -20 -27 -40 -52 -44 -55 -8 -7 -92 -120 -154 -209 -26 -38 -59 -83 -71 -98 -80 -96 -275 -336 -300 -368 -16 -21 -63 -79 -103 -129 -98 -121 -213 -267 -351 -445 -14 -19 -55 -71 -91 -115 -137 -169 -190 -255 -190 -307 0 -31 0 -32 43 -27 28 3 167 67 417 191 624 310 703 353 785 431 11 10 53 43 94 74 102 76 167 146 277 297 52 72 100 137 107 145 7 8 42 55 77 104 117 160 185 251 197 266 7 8 40 53 75 100 34 47 65 87 68 90 3 3 25 32 50 65 24 33 50 66 56 75 63 77 121 152 242 312 77 102 149 196 159 208 31 39 156 180 158 180 1 0 31 -55 65 -122 34 -68 104 -204 154 -303 224 -438 409 -799 534 -1045 74 -146 187 -368 252 -495 202 -393 300 -588 300 -595 0 -10 -429 -49 -775 -70 -99 -6 -272 -17 -385 -25 -113 -8 -284 -19 -380 -25 -96 -6 -256 -17 -355 -25 -179 -14 -356 -26 -637 -45 -336 -23 -888 -2 -1348 50 -47 5 -136 14 -197 20 -62 5 -161 15 -220 21 -137 14 -298 9 -338 -11 -39 -20 -53 -60 -34 -96 25 -48 119 -132 255 -229 73 -52 135 -95 137 -95 2 0 38 -22 79 -49 320 -212 815 -437 1163 -532 238 -64 305 -70 760 -70 470 -1 804 13 1370 56 624 47 1104 62 1553 46 196 -6 413 -16 482 -21 499 -36 534 -37 547 -4 8 23 -24 85 -102 194 -37 52 -78 117 -92 145 -14 27 -51 85 -82 129 -62 89 -72 105 -98 156 -9 19 -76 125 -149 235 -72 110 -140 216 -150 235 -10 19 -55 93 -99 163 -44 70 -85 136 -90 146 -6 10 -22 36 -36 57 -15 22 -72 116 -129 209 -57 94 -113 186 -125 205 -13 19 -80 132 -150 250 -70 118 -138 231 -150 250 -28 42 -248 411 -296 495 -19 33 -39 69 -46 80 -7 11 -16 27 -20 35 -4 8 -26 47 -48 85 -23 39 -57 97 -75 130 -18 33 -42 74 -52 90 -10 17 -21 36 -25 44 -3 8 -44 79 -90 159 -45 80 -83 147 -83 149 0 1 -15 24 -34 50 -31 44 -79 127 -114 196 -10 20 -11 32 -4 39 18 18 145 48 205 48 32 0 110 11 175 25 268 59 229 52 487 85 182 24 559 40 965 41 478 1 936 12 962 23 9 4 22 23 28 41 41 123 -80 224 -580 482 -132 68 -201 97 -281 118 -31 8 -93 32 -137 55 -44 22 -89 40 -100 40 -11 0 -51 11 -89 24 -37 13 -99 35 -138 48 -85 30 -259 70 -420 97 -66 11 -142 25 -170 31 -39 9 -89 7 -223 -6 -122 -12 -176 -14 -183 -7 -16 16 9 57 88 143 68 76 121 137 188 220 20 25 44 54 53 65 9 11 30 36 47 56 16 19 44 52 60 74 27 35 56 70 110 134 11 13 27 31 36 40 24 25 222 253 331 382 54 63 117 134 140 159 100 106 291 326 298 345 4 11 61 76 126 145 203 215 286 306 374 410 30 36 57 67 60 70 3 3 41 46 85 95 44 50 116 127 160 173 93 96 127 148 119 177 -22 70 -349 323 -589 455 -33 18 -76 42 -95 53 -112 64 -397 202 -535 259 -171 71 -293 113 -445 155 -204 55 -197 54 -665 57 -242 2 -496 1 -565 0z m1628 -994 c23 -7 42 -19 42 -27 0 -32 -62 -133 -131 -213 -40 -47 -76 -87 -79 -90 -10 -8 -162 -201 -209 -265 -25 -33 -47 -62 -50 -65 -14 -12 -61 -79 -61 -87 0 -4 -11 -21 -25 -37 -14 -16 -25 -33 -25 -39 0 -5 -26 -38 -59 -72 -32 -34 -83 -96 -114 -136 -30 -41 -90 -114 -132 -164 -42 -49 -85 -108 -96 -130 -10 -22 -29 -51 -42 -65 -49 -54 -195 -238 -232 -295 -22 -33 -56 -80 -75 -105 -19 -24 -40 -51 -47 -60 -6 -8 -59 -75 -117 -149 -58 -74 -106 -138 -106 -144 0 -8 -44 -68 -75 -103 -13 -16 -33 -40 -75 -94 -19 -25 -45 -56 -57 -70 -13 -14 -30 -38 -38 -55 -8 -16 -36 -56 -62 -87 -75 -89 -207 -236 -213 -237 -3 0 -14 18 -25 42 -12 23 -80 157 -152 297 -72 140 -195 381 -273 535 -78 154 -173 339 -210 410 -37 72 -143 279 -235 460 -92 182 -228 449 -302 594 -74 144 -131 267 -126 272 9 9 336 40 613 59 91 6 257 17 370 25 113 8 284 19 380 25 166 10 418 28 685 50 66 5 201 14 300 20 99 6 198 12 220 14 22 2 209 2 415 1 270 -1 387 -5 418 -15z"/>
 </g>

</svg>